<mxfile host="app.diagrams.net" agent="Mozilla/5.0 (Windows NT 10.0; Win64; x64) AppleWebKit/537.36 (KHTML, like Gecko) Chrome/133.0.0.0 Safari/537.36" version="26.0.11">
  <diagram name="第 1 页" id="js_wohqksQih1oHcgGBI">
    <mxGraphModel dx="971" dy="830" grid="1" gridSize="10" guides="1" tooltips="1" connect="1" arrows="1" fold="1" page="1" pageScale="1" pageWidth="1600" pageHeight="900" math="0" shadow="0">
      <root>
        <mxCell id="0" />
        <mxCell id="1" parent="0" />
        <mxCell id="0_7gLXrfZZOOfSrkGnMj-6" style="edgeStyle=none;curved=1;rounded=1;orthogonalLoop=1;jettySize=auto;html=1;entryX=0;entryY=0.5;entryDx=0;entryDy=0;fontSize=12;startSize=8;endSize=8;" edge="1" parent="1" source="EdsiglxFQytJpk3cmWZW-1" target="0_7gLXrfZZOOfSrkGnMj-1">
          <mxGeometry relative="1" as="geometry" />
        </mxCell>
        <mxCell id="EdsiglxFQytJpk3cmWZW-1" value="编辑通知" style="rounded=1;whiteSpace=wrap;html=1;" parent="1" vertex="1">
          <mxGeometry x="290" y="430" width="120" height="60" as="geometry" />
        </mxCell>
        <mxCell id="0_7gLXrfZZOOfSrkGnMj-14" style="edgeStyle=none;curved=1;rounded=1;orthogonalLoop=1;jettySize=auto;html=1;entryX=0;entryY=1;entryDx=0;entryDy=0;fontSize=12;startSize=8;endSize=8;" edge="1" parent="1" source="0_7gLXrfZZOOfSrkGnMj-1" target="0_7gLXrfZZOOfSrkGnMj-13">
          <mxGeometry relative="1" as="geometry" />
        </mxCell>
        <mxCell id="0_7gLXrfZZOOfSrkGnMj-15" style="edgeStyle=none;curved=1;rounded=1;orthogonalLoop=1;jettySize=auto;html=1;entryX=0;entryY=0.5;entryDx=0;entryDy=0;fontSize=12;startSize=8;endSize=8;" edge="1" parent="1" source="0_7gLXrfZZOOfSrkGnMj-1" target="0_7gLXrfZZOOfSrkGnMj-11">
          <mxGeometry relative="1" as="geometry" />
        </mxCell>
        <mxCell id="0_7gLXrfZZOOfSrkGnMj-16" style="edgeStyle=none;curved=1;rounded=1;orthogonalLoop=1;jettySize=auto;html=1;entryX=0;entryY=0;entryDx=0;entryDy=0;fontSize=12;startSize=8;endSize=8;" edge="1" parent="1" source="0_7gLXrfZZOOfSrkGnMj-1" target="0_7gLXrfZZOOfSrkGnMj-12">
          <mxGeometry relative="1" as="geometry" />
        </mxCell>
        <mxCell id="0_7gLXrfZZOOfSrkGnMj-1" value="收件箱模块" style="whiteSpace=wrap;html=1;rounded=1;" vertex="1" parent="1">
          <mxGeometry x="480" y="430" width="120" height="60" as="geometry" />
        </mxCell>
        <mxCell id="0_7gLXrfZZOOfSrkGnMj-8" style="edgeStyle=none;curved=1;rounded=1;orthogonalLoop=1;jettySize=auto;html=1;entryX=0;entryY=0;entryDx=0;entryDy=0;fontSize=12;startSize=8;endSize=8;" edge="1" parent="1" source="0_7gLXrfZZOOfSrkGnMj-7" target="0_7gLXrfZZOOfSrkGnMj-1">
          <mxGeometry relative="1" as="geometry" />
        </mxCell>
        <mxCell id="0_7gLXrfZZOOfSrkGnMj-7" value="回复评论" style="rounded=1;whiteSpace=wrap;html=1;" vertex="1" parent="1">
          <mxGeometry x="290" y="340" width="120" height="60" as="geometry" />
        </mxCell>
        <mxCell id="0_7gLXrfZZOOfSrkGnMj-10" style="edgeStyle=none;curved=1;rounded=1;orthogonalLoop=1;jettySize=auto;html=1;entryX=0;entryY=1;entryDx=0;entryDy=0;fontSize=12;startSize=8;endSize=8;" edge="1" parent="1" source="0_7gLXrfZZOOfSrkGnMj-9" target="0_7gLXrfZZOOfSrkGnMj-1">
          <mxGeometry relative="1" as="geometry" />
        </mxCell>
        <mxCell id="0_7gLXrfZZOOfSrkGnMj-9" value="回复反馈" style="rounded=1;whiteSpace=wrap;html=1;" vertex="1" parent="1">
          <mxGeometry x="290" y="520" width="120" height="60" as="geometry" />
        </mxCell>
        <mxCell id="0_7gLXrfZZOOfSrkGnMj-11" value="系统通知" style="rounded=1;whiteSpace=wrap;html=1;" vertex="1" parent="1">
          <mxGeometry x="670" y="430" width="120" height="60" as="geometry" />
        </mxCell>
        <mxCell id="0_7gLXrfZZOOfSrkGnMj-12" value="支持团队" style="rounded=1;whiteSpace=wrap;html=1;" vertex="1" parent="1">
          <mxGeometry x="670" y="520" width="120" height="60" as="geometry" />
        </mxCell>
        <mxCell id="0_7gLXrfZZOOfSrkGnMj-13" value="互动消息" style="rounded=1;whiteSpace=wrap;html=1;" vertex="1" parent="1">
          <mxGeometry x="670" y="340" width="120" height="60" as="geometry" />
        </mxCell>
      </root>
    </mxGraphModel>
  </diagram>
</mxfile>
